<svg width="135" height="135" xmlns="http://www.w3.org/2000/svg" viewBox="0 0 135.15 60" class="font">
    <defs>
        <linearGradient gradientTransform="rotate(25)" id="a" x1="0%" y1="0%" y2="0%">
            <stop offset="0%" stop-color="#0015D6"/>
            <stop offset="100%" stop-color="#0989FB"/>
        </linearGradient>
    </defs>
    <path d="M.12 14.05q-.1 0-.26-.07-.15-.07-.3-.17-.14-.11-.24-.24-.11-.13-.11-.25.07-.3.19-.69.11-.39.25-.8.13-.4.28-.79l.26-.68.21-.49q.09-.18.12-.18.04 0 .2.09.17.08.35.21.18.13.32.27.15.14.15.24l-.01.05-.02.08-.14.4-.18.49-.19.49-.17.47-.13.39q-.04.16-.04.23 0 .05.04.05.07 0 .22-.09t.35-.24l.4-.31.41-.34.35-.3.24-.21.15.16.16.18-.38.36q-.22.22-.48.44l-.55.45q-.28.23-.55.41-.27.18-.5.29-.23.1-.4.1zM2.83 7.6l-.05.13-.11.25-.14.29-.15.29-.14.21q-.07.09-.11.09-.13-.01-.3-.08-.18-.06-.34-.15l-.27-.17q-.11-.08-.11-.11 0-.15.08-.38.08-.22.19-.44t.22-.37Q1.72 7 1.78 7q.12 0 .3.08t.34.18q.17.1.29.2.12.1.12.14zm.6 5.38q0 .21.15.21.16 0 .42-.25t.54-.64l-.02-.13v-.1q0-.14.03-.33t.15-.43l.2-.36.23-.34q.14-.18.3-.34l.05-.04.18.23.22.28.2.27.11.17q0 .3-.11.59-.11.3-.28.58.41-.02.76-.21.35-.18.73-.59l.16.17.17.18q-.29.3-.57.5-.28.2-.55.31-.28.12-.57.17-.28.05-.58.05-.24.25-.5.45-.27.21-.55.36-.27.15-.55.23-.27.08-.52.08-.2 0-.42-.12-.22-.12-.4-.3-.17-.18-.29-.39-.12-.2-.12-.36 0-.52.14-1.03.14-.52.44-.96.3-.45.76-.79.46-.35 1.1-.52.02-.02.07-.02l.08-.01q.1 0 .21.07.1.07.19.16.1.09.16.18.06.08.06.11-.01.03-.1.08l-.24.18q-.15.12-.36.35-.2.23-.45.61-.37.55-.5 1-.13.45-.13.69zm4.6 0q0 .21.15.21t.41-.25q.26-.25.54-.64l-.01-.13-.01-.1q0-.14.03-.33t.16-.43q.08-.18.2-.36.09-.16.23-.34.13-.18.3-.34l.04-.04.18.23.23.28.19.27.11.17q0 .3-.11.59-.1.3-.28.58.41-.02.76-.21.35-.18.74-.59l.16.17.16.18q-.29.3-.56.5-.28.2-.56.31-.28.12-.56.17-.29.05-.59.05-.23.25-.5.45-.27.21-.54.36-.28.15-.55.23-.28.08-.52.08-.21 0-.43-.12t-.39-.3q-.18-.18-.3-.39-.11-.2-.11-.36 0-.52.14-1.03.14-.52.43-.96.3-.45.76-.79.46-.35 1.1-.52.02-.02.07-.02l.09-.01q.09 0 .2.07.11.07.2.16.09.09.15.18.06.08.06.11-.01.03-.1.08l-.24.18q-.15.12-.35.35-.21.23-.46.61-.36.55-.49 1-.13.45-.13.69zm4.21 1.07q-.11 0-.26-.07-.16-.07-.3-.17-.15-.11-.25-.24t-.1-.25l.18-.69.25-.8q.13-.4.28-.79l.27-.68.21-.49q.09-.18.11-.18.04 0 .21.09.16.08.34.21.18.13.33.27.14.14.14.24l-.01.05-.02.08-.14.4-.18.49-.19.49-.17.47-.12.39q-.05.16-.05.23 0 .05.04.05.08 0 .23-.09.15-.09.34-.24l.41-.31.4-.34.36-.3.24-.21.14.16.16.18-.37.36q-.23.22-.49.44-.26.23-.55.45-.28.23-.55.41-.26.18-.5.29-.23.1-.39.1zm2.7-6.45q0 .03-.05.13l-.1.25-.14.29-.16.29q-.07.13-.14.21-.07.09-.11.09-.12-.01-.3-.08-.17-.06-.33-.15l-.28-.17q-.11-.08-.11-.11 0-.15.08-.38.08-.22.19-.44t.23-.37q.11-.16.17-.16.12 0 .3.08t.35.18q.16.1.28.2.12.1.12.14z"
          fill="url(#a)" transform="matrix(8.51064 0 0 8.51064 6.723 -59.574)"/>
</svg>