<svg width="254" height="80" xmlns="http://www.w3.org/2000/svg" viewBox="0 0 254.45 60" class="font">
    <defs>
        <linearGradient gradientTransform="rotate(25)" id="a" x1="0%" y1="0%" y2="0%">
            <stop offset="0%" stop-color="#0015D6"/>
            <stop offset="100%" stop-color="#0989FB"/>
        </linearGradient>
    </defs>
    <path d="M3.54 14.49q-2 .01-2.73-1.5-.25-.53-.25-1.33 0-.81.14-1.72.28-1.82 1.08-3.36.4-.78.91-1.34Q3.79 4 5.15 4.02q.6 0 .95.33.34.33.34.94 0 .62-.36 1.24-.37.62-.93 1.29-.57.66-1.26 1.39-.68.73-1.34 1.58v.56q0 .79.33 1.15.34.37.79.37 1.2 0 2.13-1.19.37-.49.57-.49.2 0 .2.47 0 .48-.26.97-.26.5-.68.91-.42.42-.97.68-.54.27-1.12.27zm.76-7.52q.29-.36.46-.66.17-.29.17-.6 0-.32-.23-.32-.49 0-1.08 1.01-.6 1.01-.89 2.64.48-.72.87-1.21l.7-.86zm3.48 5.13l.09 1.7q0 .34-.35.61-.35.26-.95.26-.35 0-.49-.36-.13-.37-.13-1.07 0-1.47.15-2.3.14-.83.58-1.69-.65-.61-.65-1.06 0-.94 1.01-.94.52 0 .91.55.28.38.41.88.19.07.49.07.4 0 .94-.27l.36-.18q.17-.08.29-.08.41 0 .82 1.19-.13.54-.28 1.05l-.34 1.22q-.2.71-.2.95-.01.25.14.25.21 0 .52-.27.31-.26.62-.58l.57-.58q.25-.26.35-.26.2 0 .2.47 0 .97-.85 1.91-.85.93-1.94.92-.64 0-.96-.52-.33-.52-.34-1.26 0-1.47.66-2.78-.31.12-.7.12-.38 0-.55-.03l-.25 1.08q-.13.53-.13 1zm6.04 2.39q-1.4 0-1.4-2.62 0-1.43.35-2.59.54-1.79 1.23-1.79.41 0 .64.55.2.42.19.82 0 .56-.34 1.98-.32 1.23-.32 1.52 0 .3.14.41.15.11.35.11.21 0 .52-.27.3-.26.61-.58l.57-.58q.26-.26.36-.26.19 0 .19.47 0 .98-.98 1.91-.99.93-2.11.92zm.57-8.13q-.38-.56-.38-1.21 0-.64.21-1.07.2-.43.38-.63t.42-.2q.39 0 .72.58.32.58.32.97 0 .73-.51 1.14-.51.42-1.16.42zm7.48 6.9q-1.11 1.3-2.66 1.3-1.54 0-2.31-.79t-.76-1.97q-.01-1.66 1.05-2.87 1.07-1.2 2.79-1.2.78 0 1.26.19.82.34.82.63 0 .23-1.15.24-1.16 0-1.93.79-.78.79-.78 2 0 .63.37 1.05.37.43 1.05.43t1.13-.28q-1-.67-1-1.94-.01-.68.49-1.23.49-.55 1.27-.56.78-.01 1.11.43.34.43.34 1.11 0 .68-.32 1.44h.08q.62-.02 1.07-.44l.28-.29q.12-.13.25-.13.19 0 .19.46 0 .86-.5 1.29-.5.42-1.11.42-.61 0-1.03-.08zm-.13-1.63q.24-.5.24-.98 0-.47-.31-.47-.12 0-.21.18-.08.18-.08.35 0 .56.36.92zm7.73 1.63q-1.11 1.3-2.65 1.3-1.55 0-2.32-.79-.77-.79-.76-1.97-.01-1.66 1.05-2.87 1.07-1.2 2.79-1.2.78 0 1.26.19.83.34.83.63 0 .23-1.16.24-1.15 0-1.93.79t-.78 2q0 .63.37 1.05.37.43 1.05.43t1.13-.28q-.99-.67-.99-1.94-.02-.68.48-1.23.5-.55 1.27-.56.78-.01 1.12.43.33.43.33 1.11 0 .68-.32 1.44h.08q.62-.02 1.07-.44l.28-.29q.12-.13.25-.13.2 0 .2.46 0 .86-.51 1.29-.5.42-1.11.42-.61 0-1.03-.08zm-.13-1.63q.24-.5.24-.98 0-.47-.31-.47-.12 0-.21.18-.08.18-.08.35 0 .56.36.92zm3.76 2.86q-1.4 0-1.4-2.62 0-1.43.35-2.59.54-1.79 1.23-1.79.4 0 .64.55.2.42.18.82 0 .56-.33 1.98-.32 1.23-.32 1.52 0 .3.14.41.15.11.35.11.21 0 .51-.27.31-.26.62-.58l.57-.58q.26-.26.35-.26.2 0 .2.47 0 .98-.99 1.91-.98.93-2.1.92zm.57-8.13q-.38-.56-.38-1.21 0-.64.2-1.07.21-.43.39-.63.18-.2.42-.2.39 0 .71.58.33.58.33.97 0 .73-.52 1.14-.51.42-1.15.42zm3.86 5.74l.09 1.7q0 .34-.35.61-.35.26-.95.26-.35 0-.49-.36-.13-.37-.13-1.07 0-1.47.15-2.3.14-.83.58-1.69-.65-.61-.65-1.06 0-.94 1.01-.94.52 0 .91.55.28.38.41.88.19.07.49.07.4 0 .94-.27l.36-.18q.17-.08.29-.08.41 0 .82 1.19-.13.54-.28 1.05l-.34 1.22q-.2.71-.2.95-.01.25.14.25.21 0 .52-.27.31-.26.62-.58l.56-.58q.26-.26.36-.26.2 0 .2.47 0 .97-.85 1.91-.85.93-1.94.92-.64 0-.96-.52-.33-.52-.34-1.26 0-1.47.66-2.78-.31.12-.69.12-.39 0-.56-.03l-.25 1.08q-.13.53-.13 1zm6.4 0l.09 1.7q0 .34-.35.61-.35.26-.96.26-.35 0-.48-.36-.13-.37-.13-1.07 0-1.47.15-2.3.14-.83.58-1.69-.65-.61-.65-1.06 0-.94 1.01-.94.52 0 .91.55.28.38.41.88.19.07.49.07.4 0 .93-.27l.37-.18q.17-.08.29-.08.41 0 .81 1.19-.12.54-.27 1.05-.15.5-.34 1.22-.2.71-.2.95-.01.25.14.25.21 0 .52-.27.31-.26.62-.58l.56-.58q.26-.26.36-.26.2 0 .2.47 0 .97-.85 1.91-.85.93-1.94.92-.64 0-.97-.52-.32-.52-.33-1.26 0-1.47.66-2.78-.31.12-.7.12-.38 0-.55-.03l-.25 1.08q-.13.53-.13 1z"
          fill="url(#a)" transform="translate(-2.942 -17.075) scale(5.25394)"/>
</svg>